<?xml version="1.0" encoding="utf-8"?>
<!-- Generator: Adobe Illustrator 22.0.1, SVG Export Plug-In . SVG Version: 6.00 Build 0)  -->
<svg version="1.1" id="Layer_1" xmlns="http://www.w3.org/2000/svg" xmlns:xlink="http://www.w3.org/1999/xlink" x="0px" y="0px"
	 viewBox="0 0 145 130" style="enable-background:new 0 0 145 130;" xml:space="preserve">
<style type="text/css">
	.st0{display:none;}
	.st1{display:inline;fill:#FFFFFF;}
	.st2{fill:#1D4354;}
	.st3{fill:#33637A;}
	.st4{fill:#FFFFFF;}
	.st5{fill:#B2B2B2;}
	.st6{fill:#C4C4C4;}
	.st7{fill:#FFCD2D;}
	.st8{fill:#E0E0E0;}
</style>
<g id="White_bg" class="st0">
	<rect x="-13181.4" y="-1645.5" class="st1" width="16383" height="16383"/>
</g>
<circle class="st2" cx="72.5" cy="65" r="64.5"/>
<g>
	<path class="st3" d="M72.7,129.5c25.3-0.1,47.1-14.7,57.7-35.9L14.9,93.9C25.5,115,47.4,129.5,72.7,129.5z"/>
</g>
<path class="st4" d="M92.5,110.9H38.3c-0.5,0-1-0.4-1-1V20.3c0-0.5,0.4-1,1-1h68.4c0.5,0,1,0.4,1,1v75.3v14.3c0,0.5-0.4,1-1,1
	C106.7,110.9,92.5,110.9,92.5,110.9z"/>
<g>
	<path class="st5" d="M52.1,29.6v3.6c0,0.6-0.1,1-0.5,1.3c-0.3,0.3-0.7,0.4-1.2,0.4c-0.6,0-1-0.2-1.4-0.5c-0.3-0.3-0.5-0.8-0.5-1.4
		h1.3c0,0.5,0.2,0.7,0.6,0.7c0.3,0,0.5-0.2,0.5-0.6v-3.6L52.1,29.6L52.1,29.6z"/>
	<path class="st5" d="M57,29.9c0.4,0.2,0.7,0.6,1,1s0.3,0.9,0.3,1.4s-0.1,1-0.4,1.4s-0.6,0.7-1,1S56.1,35,55.6,35s-0.9-0.1-1.3-0.3
		s-0.7-0.6-1-1c-0.2-0.4-0.4-0.9-0.4-1.4s0.1-1,0.4-1.4c0.2-0.4,0.6-0.7,1-1s0.9-0.3,1.3-0.3C56.1,29.6,56.6,29.7,57,29.9z
		 M54.6,31.2c-0.2,0.3-0.4,0.6-0.4,1.1c0,0.5,0.1,0.8,0.4,1.1c0.2,0.3,0.6,0.4,1,0.4s0.7-0.1,1-0.4c0.2-0.3,0.4-0.6,0.4-1.1
		s-0.1-0.8-0.4-1.1c-0.2-0.3-0.6-0.4-1-0.4S54.9,30.9,54.6,31.2z"/>
	<path class="st5" d="M63.1,32.7c0.2,0.2,0.3,0.5,0.3,0.8c0,0.5-0.2,0.8-0.5,1.1S62.2,35,61.6,35h-2.4v-5.3h2.4c0.5,0,1,0.1,1.2,0.3
		c0.3,0.2,0.4,0.6,0.4,1c0,0.3-0.1,0.6-0.3,0.8c-0.2,0.2-0.4,0.3-0.7,0.4C62.7,32.3,62.9,32.4,63.1,32.7z M60.4,31.8h0.8
		c0.4,0,0.7-0.2,0.7-0.6s-0.2-0.6-0.7-0.6h-0.8V31.8z M62.1,33.3c0-0.2-0.1-0.3-0.2-0.4s-0.3-0.2-0.5-0.2h-0.9v1.2h0.9
		C61.8,33.9,62.1,33.7,62.1,33.3z"/>
	<path class="st5" d="M67.2,33.1v1.8h-1.3v-5.3H68c0.6,0,1.1,0.2,1.4,0.5s0.5,0.7,0.5,1.3c0,0.3-0.1,0.6-0.2,0.9
		c-0.1,0.3-0.4,0.5-0.7,0.6s-0.6,0.2-1,0.2H67.2z M68.6,31.4c0-0.5-0.3-0.7-0.8-0.7h-0.6V32h0.6C68.3,32,68.6,31.8,68.6,31.4z"/>
	<path class="st5" d="M74.5,29.9c0.4,0.2,0.7,0.6,1,1s0.3,0.9,0.3,1.4s-0.1,1-0.4,1.4s-0.6,0.7-1,1S73.7,35,73.2,35
		s-0.9-0.1-1.3-0.3s-0.7-0.6-1-1c-0.2-0.4-0.4-0.9-0.4-1.4s0.1-1,0.4-1.4c0.2-0.4,0.6-0.7,1-1s0.9-0.3,1.3-0.3
		C73.7,29.6,74.1,29.7,74.5,29.9z M72.2,31.2c-0.2,0.3-0.4,0.6-0.4,1.1c0,0.5,0.1,0.8,0.4,1.1c0.2,0.3,0.6,0.4,1,0.4s0.7-0.1,1-0.4
		c0.2-0.3,0.4-0.6,0.4-1.1s-0.1-0.8-0.4-1.1c-0.2-0.3-0.6-0.4-1-0.4S72.4,30.9,72.2,31.2z"/>
	<path class="st5" d="M80.3,34.2c-0.1,0.2-0.3,0.4-0.6,0.6s-0.6,0.2-1,0.2c-0.6,0-1.1-0.1-1.5-0.4s-0.6-0.7-0.6-1.2H78
		c0,0.2,0.1,0.4,0.2,0.5s0.3,0.2,0.5,0.2s0.3,0,0.4-0.1s0.1-0.2,0.1-0.4c0-0.1,0-0.2-0.1-0.3s-0.2-0.2-0.3-0.2
		c-0.1-0.1-0.3-0.1-0.5-0.2c-0.3-0.1-0.6-0.2-0.8-0.3s-0.4-0.3-0.5-0.5c-0.2-0.2-0.2-0.5-0.2-0.8s0.1-0.6,0.2-0.8
		c0.2-0.2,0.4-0.4,0.7-0.5c0.3-0.1,0.6-0.2,1-0.2c0.6,0,1.1,0.1,1.4,0.4s0.5,0.7,0.6,1.1h-1.4c0-0.2-0.1-0.3-0.2-0.4
		s-0.2-0.2-0.4-0.2c-0.1,0-0.3,0-0.4,0.1S78,30.9,78,31s0,0.2,0.1,0.3c0.1,0.1,0.2,0.2,0.3,0.2s0.3,0.1,0.5,0.2
		c0.3,0.1,0.6,0.2,0.8,0.3c0.2,0.1,0.4,0.3,0.6,0.5s0.2,0.5,0.2,0.8C80.5,33.7,80.5,34,80.3,34.2z"/>
	<path class="st5" d="M85.2,29.6v1h-1.4v4.2h-1.3v-4.2h-1.4v-1C81.1,29.6,85.2,29.6,85.2,29.6z"/>
</g>
<g>
	<g>
		<path class="st6" d="M95.8,59H56.3c-0.6,0-1-0.4-1-1s0.4-1,1-1h39.5c0.6,0,1,0.4,1,1S96.3,59,95.8,59z"/>
		<circle class="st6" cx="49.6" cy="58" r="1.2"/>
	</g>
	<g>
		<path class="st6" d="M95.5,82H56.3c-0.6,0-1-0.4-1-1s0.4-1,1-1h39.2c0.6,0,1,0.4,1,1S96.1,82,95.5,82z"/>
		<circle class="st6" cx="49.6" cy="81" r="1.2"/>
	</g>
	<g>
		<path class="st6" d="M95.2,74.4H56.3c-0.6,0-1-0.4-1-1s0.4-1,1-1h38.9c0.6,0,1,0.4,1,1S95.8,74.4,95.2,74.4z"/>
		<circle class="st6" cx="49.6" cy="73.4" r="1.2"/>
	</g>
	<g>
		<path class="st6" d="M95.2,66.7H56.3c-0.6,0-1-0.4-1-1s0.4-1,1-1h38.9c0.6,0,1,0.4,1,1S95.8,66.7,95.2,66.7z"/>
		<circle class="st6" cx="49.6" cy="65.7" r="1.2"/>
	</g>
</g>
<rect x="48.4" y="91.8" class="st7" width="30.1" height="9.1"/>
<rect x="48.4" y="43.5" class="st8" width="23.4" height="4.6"/>
<g id="Grid" class="st0">
</g>
</svg>
