<?xml version="1.0" encoding="utf-8"?>
<!-- Generator: Adobe Illustrator 22.0.1, SVG Export Plug-In . SVG Version: 6.00 Build 0)  -->
<svg version="1.1" id="Layer_1" xmlns="http://www.w3.org/2000/svg" xmlns:xlink="http://www.w3.org/1999/xlink" x="0px" y="0px"
	 viewBox="0 0 145 130" style="enable-background:new 0 0 145 130;" xml:space="preserve">
<style type="text/css">
	.st0{display:none;}
	.st1{display:inline;fill:#FFFFFF;}
	.st2{fill:#1D4354;}
	.st3{fill:#33637A;}
	.st4{fill:#FFFFFF;}
	.st5{fill:#FFD12D;}
	.st6{fill:#F3746B;}
	.st7{fill:#FFCC0D;}
	.st8{fill:#34BA08;}
	.st9{fill:#F2F2F2;}
	.st10{fill:#F6CC33;}
	.st11{fill:#F6CB37;}
	.st12{fill:#231F20;}
	.st13{fill:#E0E0E0;}
	.st14{fill:#B2B2B2;}
	.st15{fill:none;}
</style>
<g id="White_bg" class="st0">
	<rect x="-13400.1" y="-1645.5" class="st1" width="16383" height="16383"/>
</g>
<circle class="st2" cx="72.5" cy="65" r="64.5"/>
<g>
	<path class="st3" d="M72.7,129.5c25.3-0.1,47.1-14.7,57.7-35.9L14.9,93.9C25.5,115,47.4,129.5,72.7,129.5z"/>
</g>
<g>
	<path class="st4" d="M122.3,101.2H22.5c-0.6,0-1-0.5-1-1V40.8h101.8v59.4C123.3,100.8,122.9,101.2,122.3,101.2z"/>
	<path class="st5" d="M123.3,40.8v-8.5c0-0.6-0.5-1-1-1H22.5c-0.6,0-1,0.5-1,1v8.5H123.3z"/>
	<g>
		<circle class="st6" cx="30" cy="36.2" r="1.4"/>
		<circle class="st7" cx="37.5" cy="36.2" r="1.4"/>
		<circle class="st8" cx="45.1" cy="36.2" r="1.4"/>
	</g>
	<rect x="56.7" y="47" class="st9" width="31.5" height="48.1"/>
	<rect x="62.6" y="87.3" class="st10" width="20.4" height="3.5"/>
	<path class="st11" d="M82.6,63.6c0,5.5-4.5,10-10,10s-10-4.5-10-10s4.5-10,10-10S82.6,58.1,82.6,63.6"/>
	<path class="st12" d="M76,62.7c0,1.8-1.5,3.3-3.3,3.3s-3.3-1.5-3.3-3.3s1.5-3.3,3.3-3.3S76,60.9,76,62.7"/>
	<g>
		<path class="st12" d="M72.3,67.3c0.1,0,0.3,0,0.5,0s0.3,0,0.5,0c-0.1,0-0.3,0-0.4,0C72.6,67.3,72.4,67.3,72.3,67.3z"/>
		<path class="st12" d="M75.6,66.3c-0.7,0.6-1.5,0.9-2.5,1c-0.1,0-0.3,0-0.5,0s-0.3,0-0.5,0c-0.9-0.1-1.8-0.5-2.5-1
			c-2,0.9-3.5,2.7-3.9,4.9c1.8,1.6,4.1,2.6,6.7,2.6c2.7,0,5.2-1.1,7-2.8C79,68.8,77.5,67.1,75.6,66.3z"/>
	</g>
	<g>
		<path class="st13" d="M116.7,63.6c0,5.5-4.5,10-10,10s-10-4.5-10-10s4.5-10,10-10S116.7,58.1,116.7,63.6"/>
		<path class="st14" d="M110.1,62.7c0,1.8-1.5,3.3-3.3,3.3s-3.3-1.5-3.3-3.3s1.5-3.3,3.3-3.3C108.7,59.4,110.1,60.9,110.1,62.7"/>
		<g>
			<path class="st15" d="M106.4,67.3c0.1,0,0.3,0,0.5,0s0.3,0,0.5,0c-0.1,0-0.3,0-0.4,0C106.7,67.3,106.5,67.3,106.4,67.3z"/>
			<path class="st14" d="M109.8,66.3c-0.7,0.6-1.5,0.9-2.5,1c-0.1,0-0.3,0-0.5,0s-0.3,0-0.5,0c-0.9-0.1-1.8-0.5-2.5-1
				c-2,0.9-3.5,2.7-3.9,4.9c1.8,1.6,4.1,2.6,6.7,2.6c2.7,0,5.2-1.1,7-2.8C113.1,68.8,111.7,67.1,109.8,66.3z"/>
		</g>
	</g>
	<g>
		<path class="st13" d="M49.2,63.6c0,5.5-4.5,10-10,10s-10-4.5-10-10s4.5-10,10-10S49.2,58.1,49.2,63.6"/>
		<path class="st14" d="M42.6,62.7c0,1.8-1.5,3.3-3.3,3.3S36,64.5,36,62.7s1.5-3.3,3.3-3.3S42.6,60.9,42.6,62.7"/>
		<g>
			<path class="st15" d="M38.9,67.3c0.1,0,0.3,0,0.5,0s0.3,0,0.5,0c-0.1,0-0.3,0-0.4,0C39.2,67.3,39,67.3,38.9,67.3z"/>
			<path class="st14" d="M42.2,66.3c-0.7,0.6-1.5,0.9-2.5,1c-0.1,0-0.3,0-0.5,0s-0.3,0-0.5,0c-0.9-0.1-1.8-0.5-2.5-1
				c-2,0.9-3.5,2.7-3.9,4.9c1.8,1.6,4.1,2.6,6.7,2.6c2.7,0,5.2-1.1,7-2.8C45.6,68.8,44.1,67.1,42.2,66.3z"/>
		</g>
	</g>
</g>
<path class="st12" d="M91.7,96.4L87.2,92l3.8-2.4c0.1-0.1,0-0.3-0.1-0.3l-13.3-4.8c-0.1,0-0.2,0.1-0.2,0.2L82.2,98
	c0,0.1,0.2,0.2,0.3,0.1l2.4-3.8l4.4,4.4c0.1,0.1,0.3,0.1,0.4,0l1.9-1.9C91.8,96.7,91.8,96.5,91.7,96.4z"/>
<g id="Grid" class="st0">
</g>
</svg>
