<?xml version="1.0" encoding="utf-8"?>
<!-- Generator: Adobe Illustrator 22.0.1, SVG Export Plug-In . SVG Version: 6.00 Build 0)  -->
<svg version="1.1" id="Layer_1" xmlns="http://www.w3.org/2000/svg" xmlns:xlink="http://www.w3.org/1999/xlink" x="0px" y="0px"
	 viewBox="0 0 145 130" style="enable-background:new 0 0 145 130;" xml:space="preserve">
<style type="text/css">
	.st0{display:none;}
	.st1{display:inline;fill:#FFFFFF;}
	.st2{fill:#1D4354;}
	.st3{fill:#33637A;}
	.st4{fill:#295164;}
	.st5{fill:#FFFFFF;}
	.st6{fill:#F9F9F9;}
	.st7{fill:#B2B2B2;}
	.st8{fill:#C4C4C4;}
	.st9{fill:#F3756C;}
	.st10{fill:#F6CB37;}
</style>
<g id="White_bg" class="st0">
	<rect x="-10776" y="-1969.5" class="st1" width="16383" height="16383"/>
</g>
<path class="st2" d="M137,65c0,35.6-28.9,64.5-64.5,64.5S8,100.6,8,65S36.9,0.5,72.5,0.5S137,29.4,137,65"/>
<path class="st3" d="M72.7,129.5c25.3-0.1,47.1-14.7,57.7-35.9L14.9,93.9C25.5,115,47.4,129.5,72.7,129.5"/>
<g>
	<path id="XMLID_84_" class="st4" d="M118.2,96.1H26.8V39.7c0-0.6,0.5-1,1-1h89.3c0.6,0,1,0.5,1,1L118.2,96.1L118.2,96.1z"/>
	<rect id="XMLID_83_" x="31.9" y="43.9" class="st5" width="81.1" height="46.3"/>
	<path class="st6" d="M121.1,101.1H23.9c-0.6,0-1-0.5-1-1V97c0-0.6,0.5-1,1-1h97.2c0.6,0,1,0.5,1,1v3.1
		C122.2,100.7,121.7,101.1,121.1,101.1z"/>
	<rect x="66.5" y="96" class="st7" width="12" height="2.2"/>
</g>
<path class="st8" d="M60.4,67.4H43.9c-0.6,0-1-0.4-1-1s0.4-1,1-1h16.5c0.6,0,1,0.4,1,1S61,67.4,60.4,67.4z"/>
<path class="st8" d="M81.9,73.2h-38c-0.6,0-1-0.4-1-1s0.4-1,1-1h38c0.6,0,1,0.4,1,1S82.5,73.2,81.9,73.2z"/>
<path class="st8" d="M81.9,78.6h-38c-0.6,0-1-0.4-1-1s0.4-1,1-1h38c0.6,0,1,0.4,1,1S82.5,78.6,81.9,78.6z"/>
<path class="st8" d="M81.5,67.4H65c-0.6,0-1-0.4-1-1s0.4-1,1-1h16.5c0.6,0,1,0.4,1,1S82.1,67.4,81.5,67.4z"/>
<g>
	<path class="st5" d="M62.5,54.6H36.4c-0.5,0-1-0.4-1-1V27.5c0-0.5,0.4-1,1-1h26.1c0.5,0,1,0.4,1,1v26.1
		C63.5,54.2,63.1,54.6,62.5,54.6z"/>
	<circle class="st9" cx="44.5" cy="34.4" r="3"/>
	<path class="st7" d="M59.6,36.1c-0.2-0.2-0.6-0.2-0.8,0l-9.9,10.6c-0.2,0.2-0.5,0.2-0.7,0.1l-6.6-5.5c-0.2-0.1-0.5-0.1-0.7,0.1
		l-5.5,5.2v7c0,0.5,0.4,1,1,1h26.1c0.5,0,1-0.4,1-1V40L59.6,36.1z"/>
</g>
<path class="st10" d="M130.6,17.2H69.2c-0.5,0-1,0.4-1,1v39.1c0,0.5,0.4,1,1,1h38.1v10.3c0,0.9,1,1.3,1.7,0.7l12.3-11.1h9.3
	c0.5,0,1-0.4,1-1v-39C131.6,17.7,131.2,17.2,130.6,17.2z"/>
<g>
	<circle class="st5" cx="87.5" cy="37.8" r="2.6"/>
	<circle class="st5" cx="99.9" cy="37.8" r="2.6"/>
	<circle class="st5" cx="112.3" cy="37.8" r="2.6"/>
</g>
<g id="Grid" class="st0">
</g>
</svg>
